<?xml version="1.0" encoding="utf-8"?>
<!-- Generator: Adobe Illustrator 27.4.1, SVG Export Plug-In . SVG Version: 6.00 Build 0)  -->
<svg version="1.1"
	 id="svg425883" xmlns:rdf="http://www.w3.org/1999/02/22-rdf-syntax-ns#" xmlns:dc="http://purl.org/dc/elements/1.1/" xmlns:cc="http://creativecommons.org/ns#" xmlns:svg="http://www.w3.org/2000/svg"
	 xmlns="http://www.w3.org/2000/svg" xmlns:xlink="http://www.w3.org/1999/xlink" x="0px" y="0px" viewBox="0 0 636 260.5"
	 style="enable-background:new 0 0 636 260.5;" xml:space="preserve">
<style type="text/css">
	.st0{fill:#00AD45;}
</style>
<g id="logo-group">
	<g id="logo-center" transform="translate(0 0)">
		<g id="slogan" transform="translate(0 0)">
		</g>
		<g>
		</g>
	</g>
</g>
<g id="title" transform="translate(0 0)">
	<path id="path425892" class="st0" d="M45.6,173.9h24.1V45.1l-24.1,8V173.9z"/>
	<path id="path425894" class="st0" d="M84.6,173.9h24.1V81.7l-24.1,8V173.9z"/>
	<path id="path425896" class="st0" d="M213.3,129.5c0-6.2-1.3-12.1-3.7-17.7c-2.2-5.4-5.6-10.4-9.8-14.5c-4.2-4.2-9-7.5-14.4-9.8
		c-5.8-2.4-11.7-3.5-17.7-3.5c-6.2,0-12.1,1.1-17.7,3.5c-1.4,0.6-2.7,1.1-3.8,1.9V43.8l-24,8v77.7c0,6.1,1.1,12.1,3.5,17.7
		c2.2,5.4,5.6,10.2,9.8,14.4c4.2,4.3,9.1,7.5,14.5,9.8c5.6,2.4,11.5,3.7,17.7,3.7c6.1,0,12-1.3,17.7-3.7c5.3-2.2,10.2-5.6,14.4-9.8
		c4.2-4.2,7.5-9,9.8-14.4C212,141.5,213.3,135.6,213.3,129.5L213.3,129.5z M189.3,129.5c0,11.8-9.8,21.6-21.6,21.6
		c-12,0-21.6-9.8-21.6-21.6c0-12,9.6-21.6,21.6-21.6C179.6,107.9,189.3,117.5,189.3,129.5z"/>
	<path id="path425898" class="st0" d="M244.7,173.9L244.7,173.9v-39.3c0-15.3,12.5-28,28-28v-24c-7,0-13.9,1.4-20.3,4.2
		c-6.1,2.6-11.7,6.4-16.5,11.2c-4.8,4.6-8.5,10.2-11.2,16.5c-2.7,6.4-4,13.1-4,20.1v39.3H244.7z"/>
	<path id="path425900" class="st0" d="M335.4,84l0.2,5.1c-6.4-3.2-13.4-5-20.6-5c-6.1,0-12.1,1.1-17.7,3.5
		c-5.4,2.4-10.2,5.6-14.5,9.8c-4.2,4.2-7.4,9.1-9.8,14.5c-2.2,5.6-3.5,11.7-3.5,17.7c0,6.1,1.3,12.1,3.5,17.7
		c2.4,5.4,5.6,10.2,9.8,14.5c4.3,4.2,9.1,7.4,14.5,9.8c5.6,2.2,11.7,3.5,17.7,3.5c7.2,0,14.2-1.8,20.6-5l-0.2,3.7h24V84L335.4,84z
		 M325.8,148.2c-3.2,1.9-7,3-10.9,3c-11.8,0-21.6-9.8-21.6-21.6c0-11.8,9.8-21.6,21.6-21.6c4.2,0,8.3,1.1,11.7,3.5
		c3.5,2.1,6.2,5.3,7.8,9c1.4,2.9,2.1,5.9,2.1,9.1c0,3.8-1,7.5-2.9,10.9C331.8,143.7,329.2,146.5,325.8,148.2L325.8,148.2z"/>
	<path id="path425902" class="st0" d="M372.1,173.9h24.1V45.1l-24.1,8V173.9z"/>
	<path id="path425904" class="st0" d="M481.2,97.1c-8.5-8.5-19.8-13.1-31.6-13.1c-12,0-23.3,4.6-31.8,13.1s-13.1,19.7-13.1,31.6
		c0,12,4.6,23.2,13.1,31.6c8.5,8.5,19.8,13.1,31.8,13.1c7,0,13.9-1.6,20-4.6c-2.4,8.8-10.5,15.2-20,15.2c-5.4,0-10.5-2.1-14.4-5.8
		l-16.6,17.4c8.5,8,19.3,12.3,30.8,12.3c12,0,23.3-4.6,31.8-13.1c8.5-8.5,13.1-19.7,13.1-31.6v-34.5
		C494.3,116.7,489.6,105.5,481.2,97.1L481.2,97.1z M449.5,149.5c-11.5,0-20.9-9.3-20.9-20.8c0-11.5,9.4-20.9,20.9-20.9
		c11.5,0,20.8,9.4,20.8,20.9S460.9,149.5,449.5,149.5z"/>
	<path id="path425906" class="st0" d="M546.8,175.1c6.1,0,12.1-1.3,17.7-3.5c5.4-2.4,10.4-5.6,14.5-9.8c4.2-4.3,7.4-9.1,9.8-14.5
		c2.4-5.6,3.5-11.7,3.5-17.7c0-6.2-1.1-12.1-3.5-17.7c-2.4-5.4-5.6-10.4-9.8-14.5c-4.3-4.2-9.1-7.4-14.5-9.8
		c-5.6-2.4-11.7-3.5-17.7-3.5c-6.1,0-12.1,1.1-17.7,3.5c-5.4,2.4-10.2,5.6-14.5,9.8c-4.2,4.3-7.4,9.1-9.8,14.5
		c-2.2,5.6-3.5,11.5-3.5,17.7c0,6.1,1.3,12.1,3.5,17.7c2.4,5.4,5.6,10.2,9.8,14.5c4.3,4.2,9.1,7.4,14.5,9.8
		C534.6,173.8,540.7,175.1,546.8,175.1z M546.8,107.9c11.8,0,21.6,9.8,21.6,21.6c0,11.8-9.8,21.6-21.6,21.6
		c-11.8,0-21.6-9.8-21.6-21.6C525.2,117.7,535,107.9,546.8,107.9z"/>
</g>
</svg>
